<svg width="26" height="25" viewBox="0 0 26 25" fill="none" xmlns="http://www.w3.org/2000/svg">
<path fill-rule="evenodd" clip-rule="evenodd" d="M12.5715 0.409668C5.66529 0.409668 0.0715332 5.98113 0.0715332 12.8599C0.0715332 18.3692 3.64968 23.0225 8.61841 24.6721C9.24339 24.7811 9.4778 24.4076 9.4778 24.0807C9.4778 23.7851 9.46216 22.8046 9.46216 21.7619C6.32156 22.3377 5.50904 20.9993 5.25903 20.299C5.11842 19.941 4.50903 18.8361 3.97779 18.5404C3.54029 18.3069 2.91526 17.7311 3.96215 17.7155C4.94652 17.7 5.64965 18.6182 5.88402 18.9917C7.00905 20.8748 8.8059 20.3456 9.52467 20.0188C9.63401 19.2096 9.96217 18.6649 10.3216 18.3536C7.54029 18.0424 4.63405 16.9685 4.63405 12.2063C4.63405 10.8523 5.11842 9.73181 5.9153 8.86027C5.79027 8.54902 5.35278 7.27287 6.04027 5.56093C6.04027 5.56093 7.08716 5.23414 9.4778 6.83713C10.4778 6.55696 11.5403 6.41693 12.6028 6.41693C13.6653 6.41693 14.7278 6.55696 15.7278 6.83713C18.1184 5.21855 19.1653 5.56093 19.1653 5.56093C19.8528 7.27287 19.4153 8.54902 19.2903 8.86027C20.0872 9.73181 20.5715 10.8367 20.5715 12.2063C20.5715 16.9841 17.6496 18.0424 14.8684 18.3536C15.3215 18.7427 15.7121 19.4897 15.7121 20.6569C15.7121 22.3222 15.6965 23.6606 15.6965 24.0807C15.6965 24.4076 15.9309 24.7966 16.5559 24.6721C21.4934 23.0225 25.0715 18.3536 25.0715 12.8599C25.0715 5.98113 19.4778 0.409668 12.5715 0.409668Z" fill="white"/>
</svg>
