<svg width="40" height="30" viewBox="0 0 40 30" fill="none" xmlns="http://www.w3.org/2000/svg">
<path d="M6.30414 0V25.7609C6.30414 26.1933 6.13236 26.608 5.82659 26.9138C5.52083 27.2195 5.10612 27.3913 4.6737 27.3913C4.24128 27.3913 3.82657 27.2195 3.52081 26.9138C3.21504 26.608 3.04327 26.1933 3.04327 25.7609V6.52174H0.43457V25.7609C0.435843 26.8848 0.882873 27.9623 1.67759 28.757C2.4723 29.5517 3.5498 29.9987 4.6737 30H35.3259C36.4498 29.9987 37.5273 29.5517 38.322 28.757C39.1167 27.9623 39.5637 26.8848 39.565 25.7609V0H6.30414ZM36.9563 25.7609C36.9558 26.1931 36.7839 26.6076 36.4782 26.9132C36.1726 27.2189 35.7581 27.3908 35.3259 27.3913H8.58674C8.80258 26.8749 8.91343 26.3206 8.91283 25.7609V2.6087H36.9563V25.7609Z" fill="#777777"/>
<path d="M23.2606 5.21741H11.5215V18.2609H23.2606V5.21741ZM20.6519 15.6522H14.1302V7.8261H20.6519V15.6522Z" fill="#777777"/>
<path d="M34.3474 5.21741H25.8691V7.8261H34.3474V5.21741Z" fill="#777777"/>
<path d="M34.3474 10.4347H25.8691V13.0434H34.3474V10.4347Z" fill="#777777"/>
<path d="M34.3474 15.6522H25.8691V18.2609H34.3474V15.6522Z" fill="#777777"/>
</svg>
