<svg width="30" height="30" viewBox="0 0 30 30" fill="none" xmlns="http://www.w3.org/2000/svg">
<path fill-rule="evenodd" clip-rule="evenodd" d="M8.07692 0C8.71417 0 9.23077 0.5166 9.23077 1.15385V2.30769H20.7692V1.15385C20.7692 0.5166 21.2859 0 21.9231 0C22.5602 0 23.0769 0.5166 23.0769 1.15385V2.30769H26.5385C28.4502 2.30769 30 3.85747 30 5.76923V26.5385C30 28.4502 28.4502 30 26.5385 30H3.46154C1.54978 30 0 28.4502 0 26.5385V5.76923C0 3.85747 1.54978 2.30769 3.46154 2.30769H6.92308V1.15385C6.92308 0.5166 7.43968 0 8.07692 0ZM20.7692 4.61538V5.76923C20.7692 6.40648 21.2859 6.92308 21.9231 6.92308C22.5602 6.92308 23.0769 6.40648 23.0769 5.76923V4.61538H26.5385C27.1756 4.61538 27.6923 5.13198 27.6923 5.76923V9.23077H2.30769V5.76923C2.30769 5.13198 2.82429 4.61538 3.46154 4.61538H6.92308V5.76923C6.92308 6.40648 7.43968 6.92308 8.07692 6.92308C8.71417 6.92308 9.23077 6.40648 9.23077 5.76923V4.61538H20.7692ZM2.30769 11.5385V26.5385C2.30769 27.1756 2.82429 27.6923 3.46154 27.6923H26.5385C27.1756 27.6923 27.6923 27.1756 27.6923 26.5385V11.5385H2.30769ZM13.8462 15C13.8462 14.3628 14.3628 13.8462 15 13.8462C15.6372 13.8462 16.1538 14.3628 16.1538 15C16.1538 15.6372 15.6372 16.1538 15 16.1538C14.3628 16.1538 13.8462 15.6372 13.8462 15ZM19.6154 13.8462C18.9781 13.8462 18.4615 14.3628 18.4615 15C18.4615 15.6372 18.9781 16.1538 19.6154 16.1538C20.2526 16.1538 20.7692 15.6372 20.7692 15C20.7692 14.3628 20.2526 13.8462 19.6154 13.8462ZM23.0769 15C23.0769 14.3628 23.5936 13.8462 24.2308 13.8462C24.8679 13.8462 25.3846 14.3628 25.3846 15C25.3846 15.6372 24.8679 16.1538 24.2308 16.1538C23.5936 16.1538 23.0769 15.6372 23.0769 15ZM24.2308 18.4615C23.5936 18.4615 23.0769 18.9781 23.0769 19.6154C23.0769 20.2526 23.5936 20.7692 24.2308 20.7692C24.8679 20.7692 25.3846 20.2526 25.3846 19.6154C25.3846 18.9781 24.8679 18.4615 24.2308 18.4615ZM18.4615 19.6154C18.4615 18.9781 18.9781 18.4615 19.6154 18.4615C20.2526 18.4615 20.7692 18.9781 20.7692 19.6154C20.7692 20.2526 20.2526 20.7692 19.6154 20.7692C18.9781 20.7692 18.4615 20.2526 18.4615 19.6154ZM15 18.4615C14.3628 18.4615 13.8462 18.9781 13.8462 19.6154C13.8462 20.2526 14.3628 20.7692 15 20.7692C15.6372 20.7692 16.1538 20.2526 16.1538 19.6154C16.1538 18.9781 15.6372 18.4615 15 18.4615ZM9.23077 19.6154C9.23077 18.9781 9.74737 18.4615 10.3846 18.4615C11.0219 18.4615 11.5385 18.9781 11.5385 19.6154C11.5385 20.2526 11.0219 20.7692 10.3846 20.7692C9.74737 20.7692 9.23077 20.2526 9.23077 19.6154ZM5.76923 18.4615C5.13198 18.4615 4.61538 18.9781 4.61538 19.6154C4.61538 20.2526 5.13198 20.7692 5.76923 20.7692C6.40648 20.7692 6.92308 20.2526 6.92308 19.6154C6.92308 18.9781 6.40648 18.4615 5.76923 18.4615ZM4.61538 24.2308C4.61538 23.5936 5.13198 23.0769 5.76923 23.0769C6.40648 23.0769 6.92308 23.5936 6.92308 24.2308C6.92308 24.8679 6.40648 25.3846 5.76923 25.3846C5.13198 25.3846 4.61538 24.8679 4.61538 24.2308ZM10.3846 23.0769C9.74737 23.0769 9.23077 23.5936 9.23077 24.2308C9.23077 24.8679 9.74737 25.3846 10.3846 25.3846C11.0219 25.3846 11.5385 24.8679 11.5385 24.2308C11.5385 23.5936 11.0219 23.0769 10.3846 23.0769ZM13.8462 24.2308C13.8462 23.5936 14.3628 23.0769 15 23.0769C15.6372 23.0769 16.1538 23.5936 16.1538 24.2308C16.1538 24.8679 15.6372 25.3846 15 25.3846C14.3628 25.3846 13.8462 24.8679 13.8462 24.2308ZM19.6154 23.0769C18.9781 23.0769 18.4615 23.5936 18.4615 24.2308C18.4615 24.8679 18.9781 25.3846 19.6154 25.3846C20.2526 25.3846 20.7692 24.8679 20.7692 24.2308C20.7692 23.5936 20.2526 23.0769 19.6154 23.0769Z" fill="#777777"/>
</svg>
