<svg width="30" height="30" viewBox="0 0 30 30" fill="none" xmlns="http://www.w3.org/2000/svg">
<path d="M29.1667 16.875H25V22.5L23.3333 21.252L21.6667 22.5V16.875H17.5C17.0417 16.875 16.6667 17.2969 16.6667 17.8125V29.0625C16.6667 29.5781 17.0417 30 17.5 30H29.1667C29.625 30 30 29.5781 30 29.0625V17.8125C30 17.2969 29.625 16.875 29.1667 16.875ZM9.16667 13.125H20.8333C21.2917 13.125 21.6667 12.7031 21.6667 12.1875V0.9375C21.6667 0.421875 21.2917 0 20.8333 0H16.6667V5.625L15 4.37695L13.3333 5.625V0H9.16667C8.70833 0 8.33333 0.421875 8.33333 0.9375V12.1875C8.33333 12.7031 8.70833 13.125 9.16667 13.125ZM12.5 16.875H8.33333V22.5L6.66667 21.252L5 22.5V16.875H0.833333C0.375 16.875 0 17.2969 0 17.8125V29.0625C0 29.5781 0.375 30 0.833333 30H12.5C12.9583 30 13.3333 29.5781 13.3333 29.0625V17.8125C13.3333 17.2969 12.9583 16.875 12.5 16.875Z" fill="#777777"/>
</svg>
