<svg width="26" height="25" viewBox="0 0 26 25" fill="none" xmlns="http://www.w3.org/2000/svg">
<path fill-rule="evenodd" clip-rule="evenodd" d="M13.0715 0.356934C6.16529 0.356934 0.571533 5.9284 0.571533 12.8072C0.571533 18.3164 4.14968 22.9697 9.11841 24.6194C9.74339 24.7284 9.9778 24.3548 9.9778 24.028C9.9778 23.7323 9.96216 22.7518 9.96216 21.7091C6.82156 22.285 6.00904 20.9465 5.75903 20.2462C5.61842 19.8883 5.00903 18.7833 4.47779 18.4877C4.04029 18.2542 3.41526 17.6784 4.46215 17.6628C5.44652 17.6473 6.14965 18.5655 6.38402 18.9389C7.50905 20.8221 9.3059 20.2929 10.0247 19.9661C10.134 19.1568 10.4622 18.6122 10.8216 18.3009C8.04029 17.9896 5.13405 16.9158 5.13405 12.1536C5.13405 10.7996 5.61842 9.67908 6.4153 8.80754C6.29027 8.49629 5.85278 7.22014 6.54027 5.5082C6.54027 5.5082 7.58716 5.1814 9.9778 6.7844C10.9778 6.50423 12.0403 6.36419 13.1028 6.36419C14.1653 6.36419 15.2278 6.50423 16.2278 6.7844C18.6184 5.16581 19.6653 5.5082 19.6653 5.5082C20.3528 7.22014 19.9153 8.49629 19.7903 8.80754C20.5872 9.67908 21.0715 10.784 21.0715 12.1536C21.0715 16.9313 18.1496 17.9896 15.3684 18.3009C15.8215 18.69 16.2121 19.437 16.2121 20.6042C16.2121 22.2694 16.1965 23.6078 16.1965 24.028C16.1965 24.3548 16.4309 24.7439 17.0559 24.6194C21.9934 22.9697 25.5715 18.3009 25.5715 12.8072C25.5715 5.9284 19.9778 0.356934 13.0715 0.356934Z" fill="white"/>
</svg>
