<svg width="41" height="30" viewBox="0 0 41 30" fill="none" xmlns="http://www.w3.org/2000/svg">
<path d="M6.80438 0V25.7609C6.80438 26.1933 6.6326 26.608 6.32684 26.9138C6.02107 27.2195 5.60636 27.3913 5.17394 27.3913C4.74153 27.3913 4.32682 27.2195 4.02105 26.9138C3.71529 26.608 3.54351 26.1933 3.54351 25.7609V6.52174H0.934814V25.7609C0.936087 26.8848 1.38312 27.9623 2.17783 28.757C2.97255 29.5517 4.05005 29.9987 5.17394 30H35.8261C36.95 29.9987 38.0275 29.5517 38.8222 28.757C39.6169 27.9623 40.064 26.8848 40.0652 25.7609V0H6.80438ZM37.4566 25.7609C37.4561 26.1931 37.2841 26.6076 36.9785 26.9132C36.6728 27.2189 36.2584 27.3908 35.8261 27.3913H9.08699C9.30283 26.8749 9.41368 26.3206 9.41307 25.7609V2.6087H37.4566V25.7609Z" fill="#777777"/>
<path d="M23.7607 5.21735H12.0216V18.2608H23.7607V5.21735ZM21.152 15.6521H14.6303V7.82604H21.152V15.6521Z" fill="#777777"/>
<path d="M34.8479 5.21735H26.3696V7.82604H34.8479V5.21735Z" fill="#777777"/>
<path d="M34.8479 10.4347H26.3696V13.0434H34.8479V10.4347Z" fill="#777777"/>
<path d="M34.8479 15.6522H26.3696V18.2609H34.8479V15.6522Z" fill="#777777"/>
</svg>
