<svg width="26" height="25" viewBox="0 0 26 25" fill="none" xmlns="http://www.w3.org/2000/svg">
<path fill-rule="evenodd" clip-rule="evenodd" d="M13.0714 0.356934C6.16517 0.356934 0.571411 5.9284 0.571411 12.8072C0.571411 18.3164 4.14956 22.9697 9.11829 24.6194C9.74327 24.7284 9.97768 24.3548 9.97768 24.028C9.97768 23.7323 9.96204 22.7518 9.96204 21.7091C6.82143 22.285 6.00891 20.9465 5.75891 20.2462C5.61829 19.8883 5.0089 18.7833 4.47766 18.4877C4.04017 18.2542 3.41514 17.6784 4.46202 17.6628C5.44639 17.6473 6.14953 18.5655 6.38389 18.9389C7.50893 20.8221 9.30578 20.2929 10.0246 19.9661C10.1339 19.1568 10.462 18.6122 10.8214 18.3009C8.04017 17.9896 5.13393 16.9158 5.13393 12.1536C5.13393 10.7996 5.61829 9.67908 6.41517 8.80754C6.29015 8.49629 5.85266 7.22014 6.54015 5.5082C6.54015 5.5082 7.58704 5.1814 9.97768 6.7844C10.9776 6.50423 12.0402 6.36419 13.1026 6.36419C14.1652 6.36419 15.2276 6.50423 16.2277 6.7844C18.6183 5.16581 19.6652 5.5082 19.6652 5.5082C20.3527 7.22014 19.9151 8.49629 19.7902 8.80754C20.587 9.67908 21.0714 10.784 21.0714 12.1536C21.0714 16.9313 18.1495 17.9896 15.3683 18.3009C15.8214 18.69 16.212 19.437 16.212 20.6042C16.212 22.2694 16.1964 23.6078 16.1964 24.028C16.1964 24.3548 16.4308 24.7439 17.0558 24.6194C21.9933 22.9697 25.5714 18.3009 25.5714 12.8072C25.5714 5.9284 19.9777 0.356934 13.0714 0.356934Z" fill="white"/>
</svg>
