<svg width="31" height="30" viewBox="0 0 31 30" fill="none" xmlns="http://www.w3.org/2000/svg">
<path d="M29.6667 16.875H25.5V22.5L23.8333 21.252L22.1667 22.5V16.875H18C17.5417 16.875 17.1667 17.2969 17.1667 17.8125V29.0625C17.1667 29.5781 17.5417 30 18 30H29.6667C30.125 30 30.5 29.5781 30.5 29.0625V17.8125C30.5 17.2969 30.125 16.875 29.6667 16.875ZM9.66667 13.125H21.3333C21.7917 13.125 22.1667 12.7031 22.1667 12.1875V0.9375C22.1667 0.421875 21.7917 0 21.3333 0H17.1667V5.625L15.5 4.37695L13.8333 5.625V0H9.66667C9.20833 0 8.83333 0.421875 8.83333 0.9375V12.1875C8.83333 12.7031 9.20833 13.125 9.66667 13.125ZM13 16.875H8.83333V22.5L7.16667 21.252L5.5 22.5V16.875H1.33333C0.875 16.875 0.5 17.2969 0.5 17.8125V29.0625C0.5 29.5781 0.875 30 1.33333 30H13C13.4583 30 13.8333 29.5781 13.8333 29.0625V17.8125C13.8333 17.2969 13.4583 16.875 13 16.875Z" fill="#777777"/>
</svg>
