<svg width="26" height="25" viewBox="0 0 26 25" fill="none" xmlns="http://www.w3.org/2000/svg">
<path fill-rule="evenodd" clip-rule="evenodd" d="M13.0715 0.356445C6.16529 0.356445 0.571533 5.92791 0.571533 12.8067C0.571533 18.316 4.14968 22.9693 9.11841 24.6189C9.74339 24.7279 9.9778 24.3544 9.9778 24.0275C9.9778 23.7318 9.96216 22.7514 9.96216 21.7087C6.82156 22.2845 6.00904 20.9461 5.75903 20.2457C5.61842 19.8878 5.00903 18.7828 4.47779 18.4872C4.04029 18.2537 3.41526 17.6779 4.46215 17.6623C5.44652 17.6468 6.14965 18.565 6.38402 18.9385C7.50905 20.8216 9.3059 20.2924 10.0247 19.9656C10.134 19.1564 10.4622 18.6117 10.8216 18.3004C8.04029 17.9892 5.13405 16.9153 5.13405 12.1531C5.13405 10.7991 5.61842 9.67859 6.4153 8.80705C6.29027 8.4958 5.85278 7.21965 6.54027 5.50771C6.54027 5.50771 7.58716 5.18092 9.9778 6.78391C10.9778 6.50374 12.0403 6.36371 13.1028 6.36371C14.1653 6.36371 15.2278 6.50374 16.2278 6.78391C18.6184 5.16532 19.6653 5.50771 19.6653 5.50771C20.3528 7.21965 19.9153 8.4958 19.7903 8.80705C20.5872 9.67859 21.0715 10.7835 21.0715 12.1531C21.0715 16.9309 18.1496 17.9892 15.3684 18.3004C15.8215 18.6895 16.2121 19.4365 16.2121 20.6037C16.2121 22.2689 16.1965 23.6074 16.1965 24.0275C16.1965 24.3544 16.4309 24.7434 17.0559 24.6189C21.9934 22.9693 25.5715 18.3004 25.5715 12.8067C25.5715 5.92791 19.9778 0.356445 13.0715 0.356445Z" fill="white"/>
</svg>
