<svg width="40" height="30" viewBox="0 0 40 30" fill="none" xmlns="http://www.w3.org/2000/svg">
<path d="M6.30438 0V25.7609C6.30438 26.1933 6.1326 26.608 5.82684 26.9138C5.52107 27.2195 5.10636 27.3913 4.67394 27.3913C4.24153 27.3913 3.82682 27.2195 3.52105 26.9138C3.21529 26.608 3.04351 26.1933 3.04351 25.7609V6.52174H0.434814V25.7609C0.436087 26.8848 0.883118 27.9623 1.67783 28.757C2.47255 29.5517 3.55005 29.9987 4.67394 30H35.3261C36.45 29.9987 37.5275 29.5517 38.3222 28.757C39.1169 27.9623 39.564 26.8848 39.5652 25.7609V0H6.30438ZM36.9566 25.7609C36.9561 26.1931 36.7841 26.6076 36.4785 26.9132C36.1728 27.2189 35.7584 27.3908 35.3261 27.3913H8.58699C8.80283 26.8749 8.91368 26.3206 8.91307 25.7609V2.6087H36.9566V25.7609Z" fill="#777777"/>
<path d="M23.2609 5.21729H11.5217V18.2608H23.2609V5.21729ZM20.6522 15.6521H14.1304V7.82598H20.6522V15.6521Z" fill="#777777"/>
<path d="M34.3479 5.21729H25.8696V7.82598H34.3479V5.21729Z" fill="#777777"/>
<path d="M34.3479 10.4348H25.8696V13.0435H34.3479V10.4348Z" fill="#777777"/>
<path d="M34.3479 15.6521H25.8696V18.2608H34.3479V15.6521Z" fill="#777777"/>
</svg>
