<svg width="18" height="30" viewBox="0 0 18 30" fill="none" xmlns="http://www.w3.org/2000/svg">
<path d="M13.125 0C10.8562 0 9 1.6875 9 3.75C9 5.8125 10.8562 7.5 13.125 7.5C15.3938 7.5 17.25 5.8125 17.25 3.75C17.25 1.6875 15.3938 0 13.125 0ZM6.9375 9.375C3.51375 9.375 0.75 11.8875 0.75 15H4.875C4.875 13.95 5.7825 13.125 6.9375 13.125C8.0925 13.125 9 13.95 9 15C9 16.05 4.875 21.15 4.875 24.375C4.875 27.6 7.63875 30 11.0625 30C14.4862 30 17.25 27.4875 17.25 24.375H13.125C13.125 25.425 12.2175 26.25 11.0625 26.25C9.9075 26.25 9 25.425 9 24.375C9 23.025 13.125 17.475 13.125 15C13.125 11.9625 10.3612 9.375 6.9375 9.375Z" fill="#777777"/>
</svg>
